<svg id="bold" height="512" viewBox="0 0 24 24" width="512" xmlns="http://www.w3.org/2000/svg"><path d="m11 24c-1.103 0-2-.897-2-2s.897-2 2-2 2 .897 2 2-.897 2-2 2z"/><path d="m18 24c-1.103 0-2-.897-2-2s.897-2 2-2 2 .897 2 2-.897 2-2 2z"/><path d="m20.45 15.08-.04.17c-.11.44-.51.75-.97.75h-9.88c-.46 0-.86-.31-.97-.76l-1.56-6.24h3.34c-.2-.63-.32-1.29-.36-2h-3.48l-.18-.73c-.34-1.34-1.53-2.27-2.91-2.27h-2.44c-.55 0-1 .45-1 1s.45 1 1 1h2.44c.46 0 .86.31.97.76l2.24 8.97c.34 1.34 1.53 2.27 2.91 2.27h9.88c1.38 0 2.57-.93 2.91-2.26l.66-2.6c-.83.81-1.73 1.46-2.56 1.94z"/><path d="m23.491 1.826-5.25-1.786c-.156-.054-.326-.054-.482 0l-5.25 1.786c-.305.103-.509.389-.509.71v4.018c0 4.904 5.474 7.288 5.707 7.387.188.079.398.079.586 0 .233-.099 5.707-2.483 5.707-7.387v-4.018c0-.321-.204-.607-.509-.71zm-2.205 3.792-2.75 3.5c-.35.447-1.006.512-1.436.142l-1.75-1.5c-.42-.359-.469-.991-.108-1.41.359-.419.991-.467 1.409-.108l.958.821 2.105-2.679c.341-.434.969-.511 1.404-.168.434.339.51.968.168 1.402z"/></svg>